<svg xmlns="http://www.w3.org/2000/svg" viewBox="0 0 136.69 136.95"><defs><style>.cls-1{fill:#fff;}</style></defs><title>Arte-tech-white</title><g id="Layer_2" data-name="Layer 2"><g id="Layer_1-2" data-name="Layer 1"><path class="cls-1" d="M131.48,137c-.2,0-6-.18-63.81-.2v-10c36.23,0,52.1.09,59,.14l0-58.94h10l0,64Z"/><path class="cls-1" d="M8.89,103.5A84.48,84.48,0,0,1,0,69.68v-.25C0,66.59.77,0,67.83,0c13.79,0,25.84,2.79,35.86,8.28l-4.8,8.77c-8.54-4.67-19-7-31-7C44,10,27.16,19.46,17.66,38.12A74.93,74.93,0,0,0,10,69.43v.13a75.49,75.49,0,0,0,7.79,29.37Z"/><path class="cls-1" d="M112.58,100.66H97l-27.85-40L47.94,91.39H79.82l8.57,9.27H26.27L69.11,39Z"/></g></g></svg>