<svg xmlns="http://www.w3.org/2000/svg" xmlns:xlink="http://www.w3.org/1999/xlink" viewBox="0 0 141.75 142.1"><defs><style>.cls-1,.cls-2{fill:none;stroke-miterlimit:10;stroke-width:5px;}.cls-1{stroke:url(#linear-gradient);}.cls-2{stroke:url(#linear-gradient-2);}.cls-3{fill:url(#linear-gradient-3);}.cls-4{fill:url(#linear-gradient-4);}</style><linearGradient id="linear-gradient" x1="15.25" y1="38.99" x2="145.92" y2="114.44" gradientUnits="userSpaceOnUse"><stop offset="0" stop-color="#7bff2a"/><stop offset="0.14" stop-color="#72f249"/><stop offset="1" stop-color="#3fa6ff"/></linearGradient><linearGradient id="linear-gradient-2" x1="8.69" y1="35.22" x2="154.76" y2="119.56" xlink:href="#linear-gradient"/><linearGradient id="linear-gradient-3" x1="67.52" y1="60.39" x2="75.77" y2="65.15" xlink:href="#linear-gradient"/><linearGradient id="linear-gradient-4" x1="40.01" y1="47.99" x2="96.79" y2="80.78" xlink:href="#linear-gradient"/></defs><title>Arte-tech</title><g id="Layer_2" data-name="Layer 2"><g id="Layer_1-2" data-name="Layer 1"><path class="cls-1" d="M131.77,132V69.89s0-59.9-61.38-59.9S10,72.11,10,72.11s1,59.73,59.17,59.73S131.77,132,131.77,132Z"/><path class="cls-2" d="M139.25,139.5V69.75s0-67.25-68.92-67.25S2.5,72.25,2.5,72.25s1.09,67.06,66.43,67.06S139.25,139.5,139.25,139.5Z"/><polygon class="cls-3" points="65.41 64.05 76.4 64.05 70.9 57.45 65.41 64.05"/><path class="cls-4" d="M84.22,41.5l6-6h-43v48l24,24,24-24v-31Zm-.48,31.58-3.94-4.8H62l-3.93,4.8H52.65L68.73,53.19h4.35L89.15,73.08Z"/></g></g></svg>